<svg xmlns="http://www.w3.org/2000/svg" viewBox="0 0 86.39 76.43"><defs><style>.a{fill:#fff;}</style></defs><path class="a" d="M83.21,63.68l-1.72.53,2.17,7.08L66.88,61.6V35.4L44.19,22.3V3.72l5.05,5.42,1.31-1.22L43.19,0,35.83,7.92l1.32,1.22,5-5.42V22.3L19.5,35.4V61.6L2.72,71.29,4.9,64.21l-1.72-.53L0,74l10.54,2.42.4-1.76L3.72,73,20.5,63.33l22.69,13.1,22.69-13.1L82.67,73l-7.22,1.66.4,1.75L86.39,74Zm-40-15.76L22.5,36,43.19,24,63.88,36ZM21.5,37.71,42.19,49.65v23.9L21.5,61.6ZM44.19,73.55V49.65L64.88,37.71V61.6Z"/></svg>