<svg xmlns="http://www.w3.org/2000/svg" viewBox="0 0 91.73 39.31"><defs><style>.a{fill:#fff;}</style></defs><path class="a" d="M85.51,9.9h-.28A13.84,13.84,0,0,0,72,0H19.75A13.85,13.85,0,0,0,6.5,9.9H6.22A6.22,6.22,0,0,0,0,16.11v7.08a6.23,6.23,0,0,0,6.22,6.22H6.5a13.86,13.86,0,0,0,13.25,9.9h4.51a14.88,14.88,0,0,0,10.59-4.39L40,29.73a8.22,8.22,0,0,1,11.65,0l5.19,5.19a14.88,14.88,0,0,0,10.59,4.39H72a13.85,13.85,0,0,0,13.25-9.9h.28a6.23,6.23,0,0,0,6.22-6.22V16.11A6.22,6.22,0,0,0,85.51,9.9ZM72,37.31H67.47a12.88,12.88,0,0,1-9.18-3.81L53.1,28.31a10.22,10.22,0,0,0-14.47,0L33.44,33.5a12.88,12.88,0,0,1-9.18,3.81H19.75A11.85,11.85,0,0,1,7.92,25.47V13.83A11.85,11.85,0,0,1,19.75,2H72A11.85,11.85,0,0,1,83.81,13.83V25.47A11.85,11.85,0,0,1,72,37.31Z"/><path class="a" d="M63,23.13,59.5,12.34H61l1.68,5.32c.45,1.46.85,2.77,1.15,4h0a39.81,39.81,0,0,1,1.23-4l1.82-5.34h1.49L64.58,23.13Z"/><path class="a" d="M69.6,12.49a16,16,0,0,1,2.67-.22,4.46,4.46,0,0,1,3.12.87,2.77,2.77,0,0,1,.85,2.07,2.84,2.84,0,0,1-2,2.74V18a2.66,2.66,0,0,1,1.57,2.17,17.06,17.06,0,0,0,.83,3H75.18a14.29,14.29,0,0,1-.7-2.57c-.32-1.49-.91-2-2.18-2.1H71v4.67H69.6ZM71,17.4h1.42c1.49,0,2.44-.81,2.44-2s-1-2-2.48-2a5.63,5.63,0,0,0-1.38.12Z"/></svg>