<svg xmlns="http://www.w3.org/2000/svg" viewBox="0 0 72.71 54.66"><defs><style>.a{fill:#fff;}</style></defs><polygon class="a" points="28.78 40.01 19.32 32.8 28.78 25.59 29.99 27.18 22.62 32.8 29.99 38.41 28.78 40.01"/><polygon class="a" points="43.93 40.01 42.72 38.41 50.09 32.8 42.72 27.18 43.93 25.59 53.39 32.8 43.93 40.01"/><rect class="a" x="24.56" y="31.8" width="23.59" height="2" transform="translate(-6.64 56.22) rotate(-70.64)"/><path class="a" d="M66.22,0H6.49A6.5,6.5,0,0,0,0,6.49V48.17a6.5,6.5,0,0,0,6.49,6.49H66.22a6.5,6.5,0,0,0,6.49-6.49V6.49A6.5,6.5,0,0,0,66.22,0Zm.71,3.33a2.26,2.26,0,1,1-2.25,2.26A2.26,2.26,0,0,1,66.93,3.33Zm-6.84,0a2.26,2.26,0,1,1-2.26,2.26A2.26,2.26,0,0,1,60.09,3.33ZM70.71,48.17a4.5,4.5,0,0,1-4.49,4.49H6.49A4.5,4.5,0,0,1,2,48.17V11.09H70.71Z"/></svg>