<svg xmlns="http://www.w3.org/2000/svg" viewBox="0 0 78.52 66.26"><defs><style>.a{fill:#fff;}</style></defs><circle class="a" cx="27.2" cy="44.22" r="4.43"/><circle class="a" cx="51.33" cy="44.22" r="4.43"/><polygon class="a" points="23.08 32.96 18.68 32.96 18.68 28.57 15.6 28.57 15.6 32.96 11.21 32.96 11.21 36.04 15.6 36.04 15.6 40.44 18.68 40.44 18.68 36.04 23.08 36.04 23.08 32.96"/><circle class="a" cx="57.26" cy="34.5" r="1.5"/><circle class="a" cx="66.13" cy="34.5" r="1.5"/><circle class="a" cx="61.7" cy="38.93" r="1.5"/><circle class="a" cx="61.7" cy="30.07" r="1.5"/><path class="a" d="M78.37,55l0,0L71.82,28A10.08,10.08,0,0,0,62,20.24H40.28a15,15,0,0,1,3.82-10C46,7.81,47.89,5.31,47.89,0h-2c0,4.63-1.56,6.65-3.37,9a17.15,17.15,0,0,0-4.24,11.24H16.52A10.08,10.08,0,0,0,6.69,28L.27,54.47l0,.13a9.55,9.55,0,0,0,5.6,10.95,9.14,9.14,0,0,0,3.57.71,10,10,0,0,0,5.89-1.94,9.11,9.11,0,0,0,3.34-4.57l1.47-5.9a1.42,1.42,0,0,1,.89-1,1.38,1.38,0,0,1,1.32.17,9.29,9.29,0,0,0,5.43,1.74,9.39,9.39,0,0,0,7.77-4.18H43A9.32,9.32,0,0,0,56.2,53a1.35,1.35,0,0,1,1.3-.17,1.41,1.41,0,0,1,.9,1L59.65,59a9.09,9.09,0,0,0,3.57,5.33,9.75,9.75,0,0,0,9.47,1.24A9.57,9.57,0,0,0,78.37,55Zm-6.46,8.67a7.75,7.75,0,0,1-7.51-1,7,7,0,0,1-2.8-4.19l-1.25-5.13A3.44,3.44,0,0,0,58.2,51a3.39,3.39,0,0,0-3.16.42,7.33,7.33,0,0,1-10.62-2.31l-.29-.5H34.4l-.29.5a7.38,7.38,0,0,1-6.35,3.68,7.24,7.24,0,0,1-4.26-1.37,3.44,3.44,0,0,0-5.33,2l-1.25,5.13a7,7,0,0,1-2.8,4.19,7.71,7.71,0,0,1-7.49,1A7.55,7.55,0,0,1,2.22,55l0-.12L8.63,28.44a8.1,8.1,0,0,1,7.89-6.2H62a8.1,8.1,0,0,1,7.89,6.2l6.3,26h0l.13.54A7.56,7.56,0,0,1,71.91,63.71Z"/></svg>